<?xml version="1.0" standalone="no"?>
<!DOCTYPE svg PUBLIC "-//W3C//DTD SVG 20010904//EN"
 "http://www.w3.org/TR/2001/REC-SVG-20010904/DTD/svg10.dtd">
<svg version="1.0" xmlns="http://www.w3.org/2000/svg"
 width="1280.000000pt" height="1280.000000pt" viewBox="0 0 1280.000000 1280.000000"
 preserveAspectRatio="xMidYMid meet">
<metadata>
Created by potrace 1.15, written by Peter Selinger 2001-2017
</metadata>
<g transform="translate(0.000000,1280.000000) scale(0.100000,-0.100000)"
fill="#fff" stroke="none">
<path d="M4638 12489 c-301 -25 -620 -125 -853 -269 -163 -100 -331 -253 -428
-391 -97 -138 -174 -326 -213 -524 -27 -134 -25 -345 4 -448 55 -193 140 -302
350 -450 141 -99 235 -189 264 -254 32 -69 29 -145 -7 -220 -34 -69 -166 -206
-221 -229 -224 -94 -1185 -81 -2533 32 -162 13 -295 23 -297 21 -4 -4 -29
-554 -46 -997 -7 -179 -12 -624 -13 -990 0 -701 7 -855 45 -965 72 -210 290
-321 501 -255 80 24 151 72 220 147 163 176 202 209 299 256 150 72 300 97
465 77 464 -55 856 -392 1008 -866 126 -392 91 -823 -92 -1119 -124 -201 -319
-353 -552 -428 -116 -38 -213 -50 -351 -44 -244 10 -391 86 -507 262 -213 323
-654 463 -900 285 -51 -37 -94 -95 -123 -169 -22 -55 -23 -64 -22 -406 0 -360
7 -485 60 -1035 50 -525 150 -1363 240 -2010 25 -179 50 -362 56 -408 l12 -82
35 -10 c81 -22 701 -142 901 -174 222 -36 511 -75 730 -98 167 -17 733 -18
814 0 88 18 144 49 212 116 168 168 215 476 105 695 -16 32 -64 95 -105 140
-122 133 -173 272 -183 497 -21 464 225 835 648 979 136 47 253 66 435 72 669
22 1113 -201 1246 -627 20 -66 23 -95 23 -235 0 -155 -2 -163 -33 -255 -53
-152 -108 -235 -201 -302 -129 -93 -191 -212 -191 -365 1 -95 12 -149 50 -228
94 -194 305 -330 589 -380 551 -96 1703 21 3289 336 l114 23 -7 40 c-54 335
-141 995 -180 1361 -44 419 -56 602 -62 920 -6 318 2 453 33 572 61 234 231
358 469 339 205 -15 479 -133 585 -251 182 -202 285 -288 435 -361 572 -278
1258 28 1540 686 105 246 149 481 148 805 -2 796 -263 1334 -768 1581 -165 81
-306 114 -511 121 -102 4 -192 1 -245 -6 -257 -37 -483 -136 -612 -267 -35
-35 -65 -83 -107 -170 -116 -242 -275 -354 -505 -354 -143 0 -273 50 -367 142
-84 81 -110 166 -140 448 -17 162 -17 928 0 1210 30 490 72 976 121 1420 15
135 26 247 24 249 -2 3 -401 -14 -886 -37 -2548 -122 -2417 -118 -2537 -90
-78 18 -186 76 -238 127 -129 125 -153 300 -66 482 51 105 90 154 274 344 171
176 222 242 270 348 60 133 80 324 61 566 -20 255 -61 389 -162 541 -208 312
-595 494 -1124 530 -154 11 -148 11 -287 -1z"/>
</g>
</svg>
